<svg viewBox="0 0 750 220" width="750" height="220" xmlns="http://www.w3.org/2000/svg">
    <path d="M135.006 41.89c.717 0 1.379.368 1.752.972l3.696 5.978c.58.047 1.161.106 1.738.17l4.782-5.135a2.05 2.05 0 0 1 3.423.683l2.446 6.561a68.5 68.5 0 0 1 1.685.513l5.678-4.09a2.045 2.045 0 0 1 1.984-.23 2.038 2.038 0 0 1 1.241 1.562l1.128 6.915c.517.27 1.034.55 1.548.832l6.372-2.907a2.058 2.058 0 0 1 2.908 1.941l-.246 7.024c.455.363.905.733 1.348 1.108l6.833-1.616a2.06 2.06 0 0 1 2.477 2.476l-1.617 6.833c.376.442.746.892 1.109 1.345l7.023-.244a2.043 2.043 0 0 1 1.78.911c.396.598.457 1.348.16 1.997l-2.907 6.385c.282.508.562 1.025.831 1.549l6.915 1.125c.697.115 1.29.585 1.562 1.241a2.048 2.048 0 0 1-.23 1.984l-4.09 5.678c.177.567.35 1.13.514 1.698l6.561 2.446a2.038 2.038 0 0 1 1.295 1.521 2.046 2.046 0 0 1-.614 1.902l-5.135 4.782c.062.577.12 1.157.17 1.739l5.963 3.695h.042c.605.38.972 1.047.972 1.753s-.368 1.366-.973 1.738l-5.964 3.696a82.11 82.11 0 0 1-.17 1.738l5.135 4.782c.522.49.756 1.204.615 1.902a2.047 2.047 0 0 1-1.295 1.522l-6.562 2.445a68.788 68.788 0 0 1-.513 1.698l4.089 5.679c.417.57.503 1.327.23 1.983a2.029 2.029 0 0 1-1.561 1.242l-6.915 1.125a71.304 71.304 0 0 1-.831 1.548l2.907 6.372c.297.65.236 1.404-.16 1.997a2.043 2.043 0 0 1-1.78.911l-7.024-.246c-.36.457-.73.904-1.105 1.348l1.603 6.833a2.054 2.054 0 0 1-2.477 2.462l-6.833-1.603c-.443.377-.893.743-1.346 1.105l.244 7.024a2.052 2.052 0 0 1-2.908 1.938l-6.372-2.907c-.51.281-1.027.563-1.548.833l-1.128 6.915a2.052 2.052 0 0 1-3.225 1.346l-5.679-4.09a71.51 71.51 0 0 1-1.698.516l-2.445 6.561a2.04 2.04 0 0 1-1.521 1.295 2.044 2.044 0 0 1-1.902-.614l-4.782-5.135c-.578.066-1.158.122-1.74.173l-3.694 5.964a2.083 2.083 0 0 1-1.753.973c-.705 0-1.366-.37-1.739-.973l-3.695-5.964a67.187 67.187 0 0 1-1.739-.173l-4.782 5.135a2.046 2.046 0 0 1-1.901.614 2.047 2.047 0 0 1-1.522-1.295l-2.445-6.561a58.767 58.767 0 0 1-1.698-.515l-5.679 4.089a2.048 2.048 0 0 1-1.983.23 2.072 2.072 0 0 1-1.242-1.576l-1.127-6.915a65.468 65.468 0 0 1-1.55-.833l-6.37 2.907a2.057 2.057 0 0 1-1.997-.159 2.046 2.046 0 0 1-.912-1.78l.245-7.023a54.332 54.332 0 0 1-1.348-1.105l-6.833 1.603a2.05 2.05 0 0 1-1.93-.546 2.034 2.034 0 0 1-.547-1.916l1.603-6.833a67.171 67.171 0 0 1-1.108-1.348l-7.01.246a2.057 2.057 0 0 1-1.941-2.909l2.907-6.37a49.336 49.336 0 0 1-.833-1.55l-6.915-1.124a2.05 2.05 0 0 1-1.345-3.225l4.09-5.679c-.178-.566-.35-1.13-.514-1.698l-6.561-2.445a2.053 2.053 0 0 1-.68-3.423l5.134-4.783a66.593 66.593 0 0 1-.17-1.738l-5.964-3.696a2.023 2.023 0 0 1-.972-1.738c0-.72.368-1.38.972-1.753l5.964-3.695c.05-.58.106-1.162.17-1.739l-5.135-4.782a2.052 2.052 0 0 1 .68-3.423l6.562-2.446c.163-.573.336-1.137.514-1.698l-4.09-5.678a2.051 2.051 0 0 1-.23-1.984 2.038 2.038 0 0 1 1.562-1.241l6.915-1.125c.27-.52.55-1.037.832-1.549l-2.907-6.385a2.057 2.057 0 0 1 .162-1.997 2.065 2.065 0 0 1 1.78-.911l7.023.244a66.09 66.09 0 0 1 1.106-1.345l-1.603-6.833a2.056 2.056 0 0 1 2.476-2.476l6.833 1.616c.445-.375.894-.746 1.348-1.108l-.245-7.024a2.057 2.057 0 0 1 2.909-1.941l6.371 2.907c.511-.284 1.027-.562 1.549-.832l1.127-6.915a2.058 2.058 0 0 1 1.242-1.562 2.041 2.041 0 0 1 1.984.23l5.678 4.09a61.03 61.03 0 0 1 1.685-.513l2.445-6.561a2.044 2.044 0 0 1 1.521-1.297 2.06 2.06 0 0 1 1.902.614l4.782 5.135a60.728 60.728 0 0 1 1.739-.17l3.695-5.978a2.025 2.025 0 0 1 1.739-.972zm9.432 19.508-7.282 6.955a3.849 3.849 0 0 1-5.447-.125l-6.507-6.82c-11.411 2.174-21.586 8.097-29.072 16.439-2.885 3.446-5.144 6.457-6.777 9.03l3.008 6.765 1.875 4.238a3.845 3.845 0 0 1-1.956 5.081l-9.054 4.026-.085.874a52.584 52.584 0 0 0-.199 3.722l-.009.942c0 4.945.695 9.727 1.984 14.264 1.668 4.648 2.973 7.923 3.916 9.824.943 1.901 2.39 4.178 4.343 6.831l.526.699a52.775 52.775 0 0 0 3.985 4.627l8.735-1.875a3.844 3.844 0 0 1 4.564 2.961l2.12 9.89a51.639 51.639 0 0 0 21.871 4.823c7.608 0 14.93-1.658 21.464-4.62l2.12-9.889a3.837 3.837 0 0 1 4.564-2.961l.075-.038 8.939 1.915a53.073 53.073 0 0 0 4.809-5.651c-.27.049-.527.076-.768.076h-.22l.988-.076c3.29-5.634 5.478-9.951 6.565-12.95 1.087-3 2.146-7.641 3.175-13.923l.063-.96c.053-.96.08-1.924.08-2.898l.014-.034c0-1.74-.087-3.465-.253-5.163L177 103.132c-1.939-.856-2.816-3.138-1.956-5.081l4.985-11.248c-7.471-13.082-20.377-22.565-35.592-25.404zm22.491 91.148a4.22 4.22 0 0 0-5.013 3.247c-.489 2.282.951 4.534 3.233 5.026h.014a4.22 4.22 0 0 0 5.013-3.247 4.234 4.234 0 0 0-3.247-5.026zm-59.38 3.043a4.223 4.223 0 0 0-5.013-3.247 4.234 4.234 0 0 0-3.247 5.026 4.217 4.217 0 0 0 5.013 3.247 4.235 4.235 0 0 0 3.247-5.026zm79.146-62.26a4.213 4.213 0 0 0-5.57 2.146 4.229 4.229 0 0 0 2.147 5.584 4.213 4.213 0 0 0 5.57-2.147 4.229 4.229 0 0 0-2.147-5.583zM88.137 95.27a4.222 4.222 0 0 0-5.57-2.146c-2.13.951-3.097 3.453-2.146 5.583a4.221 4.221 0 0 0 5.57 2.147 4.238 4.238 0 0 0 2.146-5.584zm49.503-39.463a4.21 4.21 0 0 0-5.964-.137 4.235 4.235 0 0 0-.14 5.976 4.209 4.209 0 0 0 5.964.139 4.237 4.237 0 0 0 .14-5.978z"/>
    <path d="M150.427 127.241c.523 5.984-3.916 11.26-9.914 11.784s-11.286-3.9-11.81-9.883l-.663-7.584c-.157-1.795 1.175-3.377 2.974-3.535s3.386 1.17 3.543 2.965l.664 7.584c.21 2.393 2.324 4.163 4.724 3.953s4.175-2.32 3.965-4.714l-1.368-15.644c-3.887-.882-6.904-3.85-7.234-7.62-.417-4.767 3.586-9.047 9.017-9.522 5.431-.475 10.117 3.045 10.534 7.812.33 3.77-2.127 7.216-5.8 8.76l1.368 15.644m-32.17-29.935c5.43-.475 10.117 3.045 10.534 7.812.33 3.77-2.127 7.216-5.8 8.76l2.031 23.227a14.119 14.119 0 0 0 5.008 9.597c2.879 2.41 6.6 3.58 10.345 3.252 7.799-.683 13.569-7.541 12.888-15.32l-1.327-15.167c-.157-1.795 1.175-3.378 2.974-3.535s3.386 1.17 3.543 2.965l1.327 15.167c.995 11.369-7.439 21.392-18.837 22.389s-21.445-7.41-22.44-18.778l-2.031-23.227c-3.886-.883-6.904-3.85-7.234-7.62-.417-4.767 3.587-9.047 9.018-9.522m7.155-8.792-1.315 6.49c-1.865-.797-3.952-1.138-6.125-.948-3.954.346-7.321 2.387-9.258 5.264l-5.555-3.444c2.434-3.707 6.345-6.538 11.009-7.775l-.023-.26c-.785-8.975 5.873-16.889 14.871-17.676 8.999-.787 16.93 5.85 17.715 14.825l.022.26c4.808.409 9.152 2.518 12.193 5.745l-4.873 4.356c-2.407-2.496-6.078-3.922-10.032-3.576-2.172.19-4.169.889-5.867 1.998l-2.422-6.163c1.385-.69 2.9-1.39 4.484-1.79l-.022-.26c-.474-5.417-5.198-9.37-10.629-8.895-5.431.475-9.397 5.189-8.923 10.605l.023.26c1.63.12 3.244.546 4.727.984m19.387 11.928c-2.39.209-4.216 1.853-4.06 3.63s2.24 3.08 4.629 2.87 4.216-1.853 4.06-3.63-2.24-3.08-4.629-2.87m-26.068 2.28c-2.39.21-4.216 1.854-4.06 3.63s2.239 3.08 4.628 2.87c2.39-.208 4.216-1.853 4.06-3.63s-2.239-3.078-4.628-2.87z"/>
    <path d="M269.606 92.86q2.61 0 4.77.63l-2.25 13.77q-2.7-.63-4.32-.63-4.23 0-6.48 2.97-2.16 2.88-3.42 8.73V142h-14.22V94.21h12.42l1.17 9.27q1.62-4.95 4.86-7.74 3.33-2.88 7.47-2.88zM320.046 142h-12.33l-.63-6.03q-5.22 7.56-14.49 7.56-6.57 0-9.99-3.96-3.33-3.96-3.33-11.07V94.21h14.22v32.49q0 3.51 1.08 4.95 1.17 1.35 3.51 1.35 4.5 0 7.74-5.58V94.21h14.22zM348.056 92.68q5.13 0 9.63 1.53t7.92 4.32l-5.22 8.01q-5.85-3.69-11.79-3.69-2.79 0-4.32.99-1.44.9-1.44 2.61 0 1.35.63 2.25.72.81 2.79 1.71t6.39 2.16q7.47 2.16 11.07 5.67 3.69 3.42 3.69 9.54 0 4.86-2.79 8.46-2.79 3.51-7.65 5.4t-10.8 1.89q-6.03 0-11.25-1.89-5.13-1.89-8.73-5.22l6.93-7.74q6.03 4.68 12.69 4.68 3.24 0 5.04-1.17 1.89-1.17 1.89-3.33 0-1.71-.72-2.7t-2.79-1.8q-2.07-.9-6.57-2.16-7.11-2.07-10.62-5.76t-3.51-9.18q0-4.14 2.34-7.38 2.43-3.33 6.84-5.22 4.5-1.98 10.35-1.98zM404.616 139.75q-2.61 1.8-6.12 2.79-3.42.99-6.84.99-15.66-.09-15.66-17.28v-22.14h-6.75v-9.9h6.75V83.86l14.22-1.62v11.97h10.98l-1.53 9.9h-9.45v21.96q0 3.33 1.08 4.77t3.42 1.44q2.43 0 5.13-1.53zM404.316 119.32v-10.98h28.71v10.98zM463.196 92.68q4.95 0 8.91 1.44t7.47 4.41l-6.12 8.46q-4.5-3.42-9.09-3.42-4.77 0-7.2 3.51t-2.43 11.34q0 7.56 2.43 10.71t7.02 3.15q2.43 0 4.41-.72 1.98-.81 4.77-2.52l6.21 8.82q-7.11 5.67-16.11 5.67-7.29 0-12.6-3.06-5.31-3.15-8.19-8.73-2.88-5.67-2.88-13.23t2.88-13.41 8.19-9.09q5.31-3.33 12.33-3.33zM498.256 143.53q-6.21 0-9.72-3.51-3.42-3.6-3.42-10.17V75.22l14.22-1.53v55.62q0 2.97 2.43 2.97 1.26 0 2.34-.45l2.79 10.08q-3.87 1.62-8.64 1.62zM526.506 94.21V142h-14.22V94.21zm-7.2-25.2q3.69 0 6.03 2.34 2.43 2.25 2.43 5.76t-2.43 5.85q-2.34 2.25-6.03 2.25t-6.03-2.25q-2.34-2.34-2.34-5.85t2.34-5.76q2.34-2.34 6.03-2.34zM564.596 92.68q9 0 13.41 6.66t4.41 18.63q0 7.38-2.34 13.23-2.25 5.76-6.57 9.09-4.32 3.24-10.08 3.24-7.2 0-11.61-4.95v21.87l-14.22 1.53V94.21h12.51l.72 5.31q2.79-3.51 6.39-5.13 3.6-1.71 7.38-1.71zm-5.49 40.41q8.55 0 8.55-14.94 0-8.46-1.89-11.7-1.89-3.33-5.67-3.33-2.43 0-4.59 1.44-2.07 1.44-3.69 4.14v20.16q2.88 4.23 7.29 4.23zM618.386 92.68q9 0 13.41 6.66t4.41 18.63q0 7.38-2.34 13.23-2.25 5.76-6.57 9.09-4.32 3.24-10.08 3.24-7.2 0-11.61-4.95v21.87l-14.22 1.53V94.21h12.51l.72 5.31q2.79-3.51 6.39-5.13 3.6-1.71 7.38-1.71zm-5.49 40.41q8.55 0 8.55-14.94 0-8.46-1.89-11.7-1.89-3.33-5.67-3.33-2.43 0-4.59 1.44-2.07 1.44-3.69 4.14v20.16q2.88 4.23 7.29 4.23zM670.846 142.09q-2.88 9.27-9.45 14.22-6.48 5.04-17.46 5.67l-1.53-9.99q6.84-.9 10.08-3.06 3.33-2.16 5.31-6.93h-4.86l-14.58-47.79h15.12l8.55 38.7 9.36-38.7h14.67z"/>
</svg>
